<svg width="16" height="19" viewBox="0 0 16 19" fill="none" xmlns="http://www.w3.org/2000/svg">
<path d="M8 18.0396C12.4183 18.0396 16 14.4578 16 10.0396C16 5.62127 12.4183 2.03955 8 2.03955C3.58172 2.03955 0 5.62127 0 10.0396C0 14.4578 3.58172 18.0396 8 18.0396Z" fill="#26A17B"/>
<path fill-rule="evenodd" clip-rule="evenodd" d="M8.96102 10.7312V10.7302C8.90602 10.7342 8.62252 10.7512 7.99002 10.7512C7.48502 10.7512 7.12952 10.7362 7.00452 10.7302V10.7317C5.06052 10.6462 3.60952 10.3077 3.60952 9.90272C3.60952 9.49772 5.06052 9.15972 7.00452 9.07272V10.3947C7.13152 10.4037 7.49552 10.4252 7.99852 10.4252C8.60202 10.4252 8.90452 10.4002 8.96102 10.3952V9.07372C10.901 9.16022 12.3485 9.49872 12.3485 9.90272C12.3485 10.3077 10.901 10.6452 8.96102 10.7312ZM8.96102 8.93622V7.75322H11.668V5.94922H4.29752V7.75322H7.00452V8.93572C4.80452 9.03672 3.15002 9.47272 3.15002 9.99472C3.15002 10.5167 4.80452 10.9522 7.00452 11.0537V14.8447H8.96102V11.0527C11.1575 10.9517 12.808 10.5162 12.808 9.99472C12.808 9.47322 11.1575 9.03772 8.96102 8.93622Z" fill="white"/>
</svg>
