<svg width="120" height="21" viewBox="0 0 120 21" fill="none" xmlns="http://www.w3.org/2000/svg">
<path d="M27.0001 16.185C26.2778 16.185 25.6015 16.0503 24.9709 15.7794C24.339 15.5086 23.7876 15.1378 23.3153 14.6655C22.8431 14.1933 22.4723 13.6392 22.2015 13.0003C21.9306 12.3628 21.7959 11.6822 21.7959 10.96C21.7959 10.2378 21.9237 9.5586 22.1806 8.91971C22.4376 8.28082 22.7848 7.72665 23.2209 7.25443C23.6584 6.78221 24.1681 6.41137 24.7515 6.14054C25.3348 5.86971 25.9584 5.73499 26.6251 5.73499C27.2917 5.73499 27.9334 5.85304 28.5084 6.08915C29.0848 6.32526 29.5834 6.69332 30.007 7.19193C30.4306 7.69193 30.7598 8.32665 30.9959 9.0961C31.232 9.86693 31.3501 10.7864 31.3501 11.8544H23.939C24.0362 12.2155 24.189 12.5516 24.3973 12.8641C24.6056 13.1766 24.8515 13.4475 25.1362 13.6767C25.4209 13.9058 25.7403 14.0822 26.0945 14.2072C26.4487 14.3322 26.8195 14.3947 27.2084 14.3947C27.7362 14.3947 28.2251 14.2975 28.6765 14.103C29.1278 13.9086 29.5126 13.6517 29.832 13.3322L31.0806 14.5808C30.5945 15.0669 30.0015 15.4558 29.3001 15.7461C28.5987 16.0378 27.832 16.1836 27.0001 16.1836V16.185ZM26.6251 7.56554C26.3056 7.56554 26.0042 7.62804 25.7195 7.75304C25.4348 7.87804 25.1709 8.05165 24.9278 8.27387C24.6848 8.49609 24.4765 8.75998 24.3028 9.06554C24.1292 9.37109 24.0015 9.70443 23.9181 10.0641H29.1848C29.157 9.73082 29.0806 9.41137 28.9556 9.10581C28.8306 8.80026 28.657 8.5336 28.4348 8.30443C28.2126 8.07526 27.9528 7.8947 27.6542 7.76276C27.3556 7.63082 27.0126 7.56554 26.6237 7.56554H26.6251Z" fill="#2D0561"/>
<path d="M37.9501 13.8531C38.0751 13.742 38.1862 13.617 38.2834 13.4781C38.3807 13.3392 38.4293 13.1795 38.4293 12.999C38.4293 12.7767 38.3487 12.5892 38.1904 12.4365C38.0307 12.2837 37.8362 12.1559 37.6071 12.0517C37.3779 11.9476 37.139 11.8684 36.889 11.8129C36.639 11.7573 36.4307 11.7087 36.264 11.667C35.8057 11.5559 35.3751 11.4212 34.9737 11.2615C34.5709 11.1017 34.2209 10.9073 33.9223 10.6781C33.6237 10.449 33.3876 10.1781 33.214 9.86563C33.0404 9.55313 32.9543 9.1823 32.9543 8.75174C32.9543 8.34896 33.0501 7.97119 33.2432 7.61702C33.4348 7.26285 33.6932 6.95035 34.0154 6.67952C34.3376 6.40869 34.7168 6.19341 35.1529 6.03369C35.589 5.87397 36.0487 5.7948 36.5348 5.7948C36.9654 5.7948 37.3737 5.85869 37.7626 5.98508C38.1515 6.11147 38.5015 6.28369 38.814 6.50174C39.1265 6.7198 39.3904 6.9823 39.6057 7.29064C39.8209 7.59897 39.9626 7.94063 40.0321 8.31563L38.2209 8.75313C38.1376 8.4198 37.9571 8.14202 37.6793 7.9198C37.4015 7.69758 37.0196 7.58646 36.5348 7.58646C36.3682 7.58646 36.1946 7.61146 36.014 7.65869C35.8334 7.7073 35.6668 7.77952 35.514 7.87674C35.3612 7.97397 35.2334 8.09202 35.1293 8.22952C35.0251 8.36841 34.9737 8.52674 34.9737 8.7073C34.9737 8.90174 35.0321 9.06702 35.1501 9.20591C35.2682 9.3448 35.4098 9.45868 35.5765 9.54896C35.7432 9.63924 35.9237 9.71146 36.1182 9.76702C36.3126 9.82257 36.4932 9.87118 36.6598 9.91285C37.3959 10.0934 38.0057 10.2865 38.4918 10.4948C38.9779 10.7017 39.3668 10.9309 39.6571 11.1795C39.9487 11.4281 40.1529 11.7017 40.2709 12.0004C40.389 12.299 40.4473 12.6337 40.4473 13.0073C40.4473 13.4504 40.3473 13.8656 40.1459 14.2531C39.9459 14.6406 39.6682 14.9767 39.3154 15.2601C38.9626 15.5434 38.5404 15.7656 38.0487 15.924C37.5571 16.0837 37.0279 16.1629 36.4598 16.1629C35.6015 16.1629 34.8376 15.9517 34.1654 15.5281C33.4932 15.1045 33.0404 14.5392 32.8057 13.8309L34.5126 13.0601C34.7348 13.5462 35.0196 13.8754 35.3668 14.049C35.714 14.2226 36.1084 14.3087 36.5529 14.3087C37.1084 14.3087 37.5723 14.1559 37.9473 13.8504L37.9501 13.8531Z" fill="#2D0561"/>
<path d="M46.8182 16.185C46.1237 16.185 45.4751 16.0503 44.871 15.7794C44.2668 15.5086 43.7418 15.1378 43.2946 14.6655C42.8474 14.1933 42.4932 13.6392 42.2335 13.0003C41.9724 12.3628 41.8418 11.6822 41.8418 10.96C41.8418 10.2378 41.9724 9.5586 42.2335 8.91971C42.4946 8.28082 42.8487 7.72665 43.2946 7.25443C43.7418 6.78221 44.2668 6.41137 44.871 6.14054C45.4751 5.86971 46.1237 5.73499 46.8182 5.73499C47.6224 5.73499 48.3654 5.91554 49.046 6.27665C49.7265 6.63776 50.2946 7.13082 50.7529 7.75443L49.3376 8.8572C49.0599 8.45443 48.7099 8.13915 48.2862 7.90998C47.8626 7.68082 47.4085 7.56693 46.9224 7.56693C46.5057 7.56693 46.1099 7.65443 45.7362 7.82665C45.3612 8.00026 45.0349 8.23915 44.7585 8.5447C44.4807 8.85026 44.2626 9.21137 44.1029 9.62665C43.9432 10.0433 43.864 10.4878 43.864 10.9586C43.864 11.4294 43.9432 11.8753 44.1029 12.2905C44.2626 12.7072 44.4807 13.0711 44.7585 13.3836C45.0362 13.6961 45.3626 13.9419 45.7362 14.1225C46.1112 14.303 46.5071 14.3933 46.9224 14.3933C47.464 14.3933 47.9557 14.2475 48.4001 13.9558C48.8446 13.6642 49.2043 13.2767 49.4821 12.7905L50.8557 13.9975C50.4112 14.6642 49.8362 15.1947 49.1279 15.5905C48.4196 15.9864 47.6501 16.1836 46.8168 16.1836L46.8182 16.185Z" fill="#2D0561"/>
<path d="M58.5596 7.69051C58.4763 7.66273 58.3791 7.63496 58.268 7.60718C58.1569 7.5794 58.0388 7.56551 57.9138 7.56551C57.511 7.56551 57.136 7.63218 56.7902 7.76273C56.443 7.89468 56.1444 8.07107 55.8944 8.29329C55.6444 8.51551 55.4471 8.77523 55.3013 9.07384C55.1555 9.37246 55.0832 9.68773 55.0832 10.0211L55.0624 15.9336H53.043V5.96134H54.6457L55.0624 7.06413C55.3402 6.66135 55.7041 6.33912 56.1555 6.09607C56.6069 5.85301 57.1721 5.73218 57.8527 5.73218C58.2971 5.73218 58.8027 5.79468 59.3721 5.91968L58.8513 7.81412C58.7541 7.77245 58.6569 7.73079 58.5596 7.68913V7.69051Z" fill="#2D0561"/>
<path d="M65.0764 16.185C64.382 16.185 63.7333 16.0503 63.1306 15.7794C62.5264 15.5086 61.9986 15.1378 61.5486 14.6655C61.0972 14.1933 60.7403 13.6392 60.4764 13.0003C60.2125 12.3628 60.0806 11.6822 60.0806 10.96C60.0806 10.2378 60.2125 9.5586 60.4764 8.91971C60.7403 8.28082 61.0972 7.72665 61.5486 7.25443C62 6.78221 62.5264 6.41137 63.1306 6.14054C63.7347 5.86971 64.3833 5.73499 65.0764 5.73499C65.7695 5.73499 66.4014 5.86971 67.0125 6.14054C67.6236 6.41137 68.1542 6.78221 68.6056 7.25443C69.0569 7.72665 69.4139 8.28221 69.6778 8.91971C69.9417 9.5586 70.0736 10.2378 70.0736 10.96C70.0736 11.6822 69.9417 12.3614 69.6778 13.0003C69.4139 13.6392 69.0569 14.1947 68.6056 14.6655C68.1542 15.1378 67.6236 15.5086 67.0125 15.7794C66.4014 16.0503 65.757 16.185 65.0764 16.185ZM65.0653 7.52527C64.6611 7.52527 64.2778 7.61554 63.9167 7.79748C63.5542 7.97804 63.2375 8.22248 62.9653 8.52804C62.6931 8.83498 62.482 9.1961 62.3278 9.61415C62.175 10.0322 62.0986 10.4767 62.0986 10.9503C62.0986 11.4239 62.175 11.8697 62.3278 12.2864C62.4806 12.7044 62.6931 13.0697 62.9653 13.3822C63.2375 13.6961 63.5542 13.9433 63.9167 14.1239C64.2792 14.3044 64.6611 14.3947 65.0653 14.3947C65.4694 14.3947 65.8528 14.3044 66.2139 14.1239C66.5764 13.9433 66.8889 13.6961 67.1542 13.3822C67.4195 13.0683 67.6278 12.703 67.7806 12.2864C67.9333 11.8683 68.0111 11.4239 68.0111 10.9503C68.0111 10.4767 67.9347 10.0322 67.7806 9.61415C67.6278 9.1961 67.4181 8.83498 67.1542 8.52804C66.8889 8.22109 66.5764 7.97804 66.2139 7.79748C65.8514 7.61693 65.4694 7.52527 65.0653 7.52527Z" fill="#2D0561"/>
<path d="M74.1737 15.935L70.8223 5.96277H72.9667L75.2987 13.4989L77.7556 5.96277H79.5459L82.0028 13.4364L84.3139 5.96277H86.4584L83.107 15.935H80.9L78.8181 9.83499L78.6514 8.87666L78.4848 9.83499L76.4237 15.935H74.175H74.1737Z" fill="#2D0561"/>
<path d="M89.828 15.935H87.8086V5.96281H89.4114L89.828 6.83781C90.1614 6.51836 90.5628 6.25448 91.035 6.04614C91.5072 5.83781 92.0197 5.73364 92.5753 5.73364C92.9364 5.73364 93.3461 5.7892 93.803 5.90031C94.2614 6.01142 94.6878 6.21975 95.0836 6.52531C95.4794 6.83086 95.8128 7.25447 96.0822 7.79475C96.353 8.33642 96.4878 9.03642 96.4878 9.89753V15.935H94.5725V9.8767C94.5725 9.44614 94.5058 9.08226 94.3753 8.78365C94.2433 8.48503 94.0697 8.24614 93.8544 8.06558C93.6392 7.88503 93.3961 7.75726 93.1253 7.68087C92.8544 7.60448 92.5739 7.56698 92.2822 7.56698C92.06 7.56698 91.8072 7.60864 91.5225 7.69197C91.2378 7.77531 90.9711 7.91003 90.7211 8.09753C90.4711 8.28503 90.26 8.52114 90.0864 8.80586C89.9128 9.09059 89.8267 9.44059 89.8267 9.85725V15.9364L89.828 15.935Z" fill="#2D0561"/>
<path d="M103.693 16.185C102.971 16.185 102.294 16.0503 101.664 15.7794C101.032 15.5086 100.48 15.1378 100.008 14.6655C99.536 14.1933 99.1652 13.6392 98.8943 13.0003C98.6235 12.3628 98.4888 11.6822 98.4888 10.96C98.4888 10.2378 98.6166 9.5586 98.8735 8.91971C99.1304 8.28082 99.4777 7.72665 99.9138 7.25443C100.351 6.78221 100.861 6.41137 101.444 6.14054C102.028 5.86971 102.651 5.73499 103.318 5.73499C103.985 5.73499 104.626 5.85304 105.203 6.08915C105.779 6.32526 106.278 6.69332 106.701 7.19193C107.125 7.69193 107.454 8.32665 107.69 9.0961C107.926 9.86693 108.044 10.7864 108.044 11.8544H100.633C100.73 12.2155 100.883 12.5516 101.092 12.8641C101.3 13.1766 101.546 13.4475 101.83 13.6767C102.115 13.9058 102.435 14.0822 102.787 14.2072C103.142 14.3322 103.512 14.3947 103.901 14.3947C104.429 14.3947 104.918 14.2975 105.369 14.103C105.821 13.9086 106.205 13.6517 106.525 13.3322L107.773 14.5808C107.287 15.0669 106.694 15.4558 105.993 15.7461C105.292 16.0378 104.525 16.1836 103.693 16.1836V16.185ZM103.318 7.56554C102.998 7.56554 102.697 7.62804 102.412 7.75304C102.128 7.87804 101.864 8.05165 101.621 8.27387C101.378 8.49609 101.169 8.75998 100.996 9.06554C100.822 9.37109 100.694 9.70443 100.611 10.0641H105.878C105.85 9.73082 105.773 9.41137 105.648 9.10581C105.523 8.80026 105.35 8.5336 105.128 8.30443C104.905 8.07526 104.646 7.8947 104.347 7.76276C104.048 7.63082 103.705 7.56554 103.317 7.56554H103.318Z" fill="#2D0561"/>
<path d="M113.728 16.2475C113.172 16.2892 112.672 16.2086 112.229 16.0086C111.785 15.8072 111.423 15.4531 111.147 14.9475C110.869 14.4406 110.73 13.7295 110.73 12.8142V7.75585H109.273V6.37669L110.73 5.96557V3.30029H112.75V5.96557H115.457V7.75585H112.75V13.1267C112.75 13.46 112.787 13.7239 112.864 13.9183C112.94 14.1128 113.068 14.2586 113.248 14.3559C113.429 14.4531 113.665 14.5017 113.957 14.5017C114.248 14.5017 114.603 14.4739 115.018 14.4183L115.414 15.8961C114.844 16.0906 114.282 16.2086 113.728 16.2503V16.2475Z" fill="#2D0561"/>
<path d="M17.5943 9.77082C17.2429 6.06666 14.122 3.16943 10.3262 3.16943C8.53594 3.16943 6.89566 3.81388 5.62483 4.88332C5.26649 5.18471 4.93871 5.51943 4.64427 5.88471C3.76788 6.96665 3.19705 8.30693 3.05677 9.77221C3.03455 10.0028 3.02344 10.2361 3.02344 10.4722C3.02344 10.7083 3.03455 10.9417 3.05816 11.1722C3.40955 14.8778 6.52899 17.775 10.3262 17.775C12.0637 17.775 13.6609 17.168 14.9151 16.1528C15.279 15.8583 15.6137 15.5305 15.9151 15.1722L14.9193 14.1764C14.6248 14.5403 14.2873 14.8694 13.9165 15.1528C12.922 15.918 11.6776 16.3736 10.3276 16.3736C7.30955 16.3736 4.8151 14.0986 4.46788 11.1708C4.4401 10.9417 4.42622 10.7069 4.42622 10.4708C4.42622 10.2347 4.4401 9.99999 4.46788 9.77082C4.59566 8.69304 5.0151 7.70276 5.64566 6.88332C5.92899 6.51109 6.25955 6.1736 6.62344 5.88054C7.63733 5.06249 8.92483 4.57082 10.3276 4.57082C13.3457 4.57082 15.8415 6.84582 16.1887 9.77221C16.2165 10.0014 16.2304 10.2361 16.2304 10.4722C16.2304 10.7083 16.2165 10.943 16.1887 11.1722H17.5984C17.6207 10.9417 17.6318 10.7083 17.6318 10.4722C17.6318 10.2361 17.6207 10.0028 17.597 9.77221L17.5943 9.77082Z" fill="#2D0561"/>
<path d="M14.8375 11.1723C14.8737 10.9445 14.8903 10.7098 14.8903 10.4723C14.8903 10.2348 14.8723 10 14.8375 9.77226C14.5 7.58337 12.6098 5.90698 10.325 5.90698C9.29171 5.90698 8.33616 6.25143 7.57088 6.83198C7.19588 7.11532 6.86671 7.45421 6.59588 7.83754C6.19727 8.40143 5.92227 9.05976 5.81254 9.77226C5.77643 10 5.75977 10.2348 5.75977 10.4723C5.75977 10.7098 5.77782 10.9445 5.81254 11.1723C6.15004 13.3625 8.04032 15.0389 10.325 15.0389C11.307 15.0389 12.2167 14.7292 12.9625 14.2014C13.3459 13.9306 13.6848 13.6 13.9667 13.2264L12.9625 12.2223C12.7014 12.6139 12.3556 12.9473 11.9487 13.1889C11.475 13.475 10.9181 13.6403 10.325 13.6403C8.81949 13.6403 7.55699 12.5834 7.23893 11.1736C7.18616 10.9486 7.15977 10.7139 7.15977 10.4736C7.15977 10.2334 7.18616 9.99864 7.23893 9.77364C7.31254 9.44448 7.44032 9.13337 7.60977 8.85143C7.85143 8.44587 8.18338 8.09865 8.57643 7.83615C9.07643 7.50282 9.67921 7.30837 10.3264 7.30837C11.832 7.30837 13.0931 8.36392 13.4125 9.77364C13.4653 9.99864 13.4917 10.2334 13.4917 10.4736C13.4917 10.7139 13.4653 10.9486 13.4125 11.1736H14.8389L14.8375 11.1723Z" fill="#2D0561"/>
<path d="M8.90803 9.77087C8.80247 9.98199 8.74414 10.2209 8.74414 10.4709C8.74414 10.7209 8.80247 10.9598 8.90803 11.1709H6.61914V9.77087H8.90803Z" fill="#2D0561"/>
<path d="M13.8259 9.77087V11.1709H11.7412C11.8468 10.9598 11.9051 10.7209 11.9051 10.4709C11.9051 10.2209 11.8468 9.98199 11.7412 9.77087H13.8259Z" fill="#2D0561"/>
<path d="M10.325 11.1722C10.7116 11.1722 11.025 10.8588 11.025 10.4722C11.025 10.0856 10.7116 9.77222 10.325 9.77222C9.9384 9.77222 9.625 10.0856 9.625 10.4722C9.625 10.8588 9.9384 11.1722 10.325 11.1722Z" fill="#2D0561"/>
</svg>
